<svg width="100" height="100" viewBox="0 0 100 100" fill="none" xmlns="http://www.w3.org/2000/svg">
<circle cx="50" cy="50" r="49.2857" stroke="#DBDBDB" stroke-width="1.42857"/>
<path d="M28.7142 55.7142C28.7142 63.3504 29.6645 67.5982 32.4816 70.0307C33.8959 71.2519 35.8453 72.073 38.5552 72.5837C41.2681 73.095 44.689 73.2856 48.9999 73.2857C53.3092 73.2857 56.7294 73.0839 59.4411 72.5591C62.1497 72.0349 64.1002 71.198 65.5159 69.9652C68.3364 67.5093 69.2856 63.2574 69.2856 55.7142C69.2856 50.8169 69.2784 46.5141 68.3325 43.425C67.8657 41.9004 67.1882 40.7396 66.2265 39.9562C65.2734 39.1797 63.9676 38.7143 62.1249 38.7143C60.0919 38.7143 58.7815 38.332 57.9573 37.5949C57.123 36.8487 56.9354 35.8648 56.8243 35.1031C56.8082 34.9929 56.794 34.889 56.7805 34.79C56.7436 34.5202 56.7115 34.2859 56.6597 34.0543C56.5921 33.752 56.5045 33.5294 56.3798 33.3584C56.1652 33.0641 55.6817 32.7143 54.2499 32.7143L43.7499 32.7143C42.3181 32.7143 41.8345 33.064 41.6199 33.3583C41.4952 33.5294 41.4075 33.752 41.3399 34.0543C41.2881 34.2859 41.256 34.5202 41.2191 34.79C41.2055 34.8891 41.1913 34.9929 41.1752 35.1031C41.0641 35.8648 40.8764 36.8487 40.0421 37.5949C39.2179 38.332 37.9074 38.7143 35.8744 38.7143C34.0278 38.7143 32.7208 39.1697 31.7685 39.9324C30.8088 40.7009 30.1328 41.8424 29.6667 43.3529C28.7216 46.4161 28.7142 50.7168 28.7142 55.7126L28.7142 55.7142Z" stroke="#7A7A7A" stroke-width="1.42857" stroke-linecap="round" stroke-linejoin="round"/>
<ellipse rx="1.75" ry="1.75" transform="matrix(-1 0 0 1 59.4999 45.9999)" fill="#7A7A7A"/>
<path d="M48.9999 46.7142C44.5619 46.7142 40.9642 50.3119 40.9642 54.7499C40.9642 59.1879 44.5619 62.7857 48.9999 62.7857C53.4379 62.7857 57.0356 59.1879 57.0356 54.7499C57.0356 50.3119 53.4379 46.7142 48.9999 46.7142Z" stroke="#7A7A7A" stroke-width="1.42857"/>
<path d="M61.7144 26.5C61.7144 28.6453 61.8303 30.3206 62.1221 31.6335C62.412 32.9382 62.8662 33.8409 63.5127 34.4874C64.1592 35.1339 65.0618 35.588 66.3666 35.878C67.6795 36.1698 69.3547 36.2857 71.5001 36.2857C73.6455 36.2857 75.3208 36.1698 76.6336 35.878C77.9384 35.588 78.8411 35.1339 79.4876 34.4874C80.1341 33.8409 80.5882 32.9382 80.8782 31.6335C81.1699 30.3206 81.2858 28.6453 81.2858 26.5C81.2858 24.3546 81.1699 22.6793 80.8782 21.3664C80.5882 20.0617 80.1341 19.159 79.4876 18.5125C78.8411 17.866 77.9384 17.4119 76.6336 17.1219C75.3208 16.8301 73.6455 16.7142 71.5001 16.7142C69.3547 16.7142 67.6795 16.8301 66.3666 17.1219C65.0618 17.4119 64.1592 17.866 63.5127 18.5125C62.8662 19.159 62.412 20.0617 62.1221 21.3664C61.8303 22.6793 61.7144 24.3546 61.7144 26.5Z" stroke="#377DFF" stroke-width="1.42857" stroke-linecap="round" stroke-linejoin="round"/>
<path d="M71.5 23V26.5M71.5 30V26.5M71.5 26.5H75H68" stroke="#377DFF" stroke-width="1.42857" stroke-linecap="round" stroke-linejoin="round"/>
</svg>
